<?xml version="1.0" encoding="UTF-8" standalone="no"?>
<!DOCTYPE svg PUBLIC "-//W3C//DTD SVG 1.1//EN" "http://www.w3.org/Graphics/SVG/1.1/DTD/svg11.dtd">
<svg width="100%" height="100%" viewBox="0 0 220 51" version="1.1" xmlns="http://www.w3.org/2000/svg" xmlns:xlink="http://www.w3.org/1999/xlink" xml:space="preserve" xmlns:serif="http://www.serif.com/" style="fill-rule:evenodd;clip-rule:evenodd;stroke-linejoin:round;stroke-miterlimit:2;">
    <g transform="matrix(1,0,0,1,-120.203418,-58)">
        <g transform="matrix(4.150943,0,0,1.888889,-16.777714,-178.111111)">
            <g transform="matrix(0.104247,0,0,0.22909,35.004504,128.83742)">
                <path d="M47,0.9C21.7,0.9 1.1,21.5 1.1,46.8C1.1,72.2 21.7,92.7 47,92.7C72.4,92.7 92.9,72.1 92.9,46.8C92.9,21.5 72.4,0.9 47,0.9ZM27.4,16.3L34.8,16.3L34.8,35L27.4,31.5L27.4,16.3ZM16.9,48.9L24.1,38.2L33,38.2L16.9,63.6L16.9,48.9ZM45.2,50.1L29.6,77.4L17,77.4L37.9,42L37.9,30.7L45.3,32.9L45.3,50.1L45.2,50.1ZM45.2,25.8L37.8,25.8L37.8,16.3L45.2,16.3L45.2,25.8ZM48.9,16.3L56.3,16.3L56.3,33.4L48.9,31.2L48.9,16.3ZM64.5,77.4L48.9,50.2L48.9,38.2L59.2,33.3L59.2,16.3L66.8,16.3L66.8,33.4L56.2,38.3L56.2,42L77.1,77.3L64.5,77.3L64.5,77.4ZM77.2,63.6L61.3,38.2L70,38.2L77.2,48.9L77.2,63.6Z" style="fill:white;fill-rule:nonzero;"/>
            </g>
        </g>
        <g transform="matrix(4.150943,0,0,1.888889,-16.777714,-178.111111)">
            <g transform="matrix(0.104247,0,0,0.22909,35.004504,128.83742)">
                <path d="M158.3,75L156.6,75L156.6,59.7L161.5,59.7C162.8,59.7 163.9,60.1 164.8,61C165.7,61.9 166.2,63 166.2,64.3C166.2,65.6 165.7,66.7 164.8,67.6C163.9,68.5 162.8,68.9 161.5,68.9L158.3,68.9L158.3,75ZM158.3,61.2L158.3,67.4L161.4,67.4C162.3,67.4 163,67.1 163.5,66.5C164.1,65.9 164.4,65.2 164.4,64.3C164.4,63.4 164.1,62.7 163.5,62.1C162.9,61.5 162.2,61.2 161.4,61.2L158.3,61.2Z" style="fill:white;fill-rule:nonzero;"/>
            </g>
        </g>
        <g transform="matrix(4.150943,0,0,1.888889,-16.777714,-178.111111)">
            <g transform="matrix(0.104247,0,0,0.22909,35.004504,128.83742)">
                <path d="M175.3,75L173.5,75L173.5,59.7L178.7,59.7C180,59.7 181,60.1 181.9,61C182.8,61.8 183.2,62.9 183.2,64.2C183.2,65.2 182.9,66.1 182.4,66.8C181.9,67.6 181.2,68.1 180.3,68.5L184,75L182.1,75L178.7,69L175.3,69L175.3,75ZM175.2,61.3L175.2,67.4L178.5,67.4C179.4,67.4 180.1,67.1 180.7,66.5C181.3,65.9 181.6,65.2 181.6,64.3C181.6,63.5 181.3,62.7 180.8,62.2C180.2,61.6 179.5,61.3 178.7,61.3L175.2,61.3Z" style="fill:white;fill-rule:nonzero;"/>
            </g>
        </g>
        <g transform="matrix(4.150943,0,0,1.888889,-16.777714,-178.111111)">
            <g transform="matrix(0.104247,0,0,0.22909,35.004504,128.83742)">
                <path d="M192.5,73C191,71.5 190.2,69.6 190.2,67.3C190.2,65.1 191,63.2 192.5,61.6C194.1,60.1 195.9,59.3 198.2,59.3C200.4,59.3 202.3,60.1 203.8,61.6C205.3,63.1 206.1,65 206.1,67.3C206.1,69.6 205.3,71.5 203.8,73C202.3,74.5 200.4,75.3 198.2,75.3C195.9,75.3 194,74.5 192.5,73ZM193.6,62.8C192.4,64 191.8,65.5 191.8,67.3C191.8,69.1 192.4,70.6 193.6,71.9C194.8,73.1 196.3,73.7 198.1,73.7C199.9,73.7 201.4,73.1 202.6,71.9C203.8,70.7 204.4,69.2 204.4,67.3C204.4,65.5 203.8,64 202.6,62.8C201.4,61.6 199.9,61 198.1,61C196.3,61 194.8,61.6 193.6,62.8Z" style="fill:white;fill-rule:nonzero;"/>
            </g>
        </g>
        <g transform="matrix(4.150943,0,0,1.888889,-16.777714,-178.111111)">
            <g transform="matrix(0.104247,0,0,0.22909,35.004504,128.83742)">
                <path d="M218.4,75L213.5,75L213.5,59.7L218.4,59.7C220.8,59.7 222.8,60.4 224.2,61.8C225.6,63.2 226.3,65 226.3,67.3C226.3,69.6 225.6,71.4 224.2,72.8C222.7,74.3 220.8,75 218.4,75ZM215.2,61.3L215.2,73.4L218.3,73.4C220.3,73.4 221.9,72.9 223,71.8C224.1,70.7 224.6,69.2 224.6,67.4C224.6,65.5 224.1,64 223,63C221.9,61.9 220.4,61.4 218.3,61.4L215.2,61.4L215.2,61.3Z" style="fill:white;fill-rule:nonzero;"/>
            </g>
        </g>
        <g transform="matrix(4.150943,0,0,1.888889,-16.777714,-178.111111)">
            <g transform="matrix(0.104247,0,0,0.22909,35.004504,128.83742)">
                <path d="M114.3,50L107.6,50L107.6,19.5L127.7,19.5L127.7,25.6L114.3,25.6L114.3,31.9L126.5,31.9L126.5,37.9L114.3,37.9L114.3,50Z" style="fill:white;fill-rule:nonzero;"/>
            </g>
        </g>
        <g transform="matrix(4.150943,0,0,1.888889,-16.777714,-178.111111)">
            <g transform="matrix(0.104247,0,0,0.22909,35.004504,128.83742)">
                <rect x="132.9" y="19.5" width="6.7" height="30.5" style="fill:white;fill-rule:nonzero;"/>
            </g>
        </g>
        <g transform="matrix(4.150943,0,0,1.888889,-16.777714,-178.111111)">
            <g transform="matrix(0.104247,0,0,0.22909,35.004504,128.83742)">
                <path d="M152.1,50L145.4,50L145.4,19.5L165.5,19.5L165.5,25.6L152.1,25.6L152.1,31.9L164.3,31.9L164.3,37.9L152.1,37.9L152.1,50Z" style="fill:white;fill-rule:nonzero;"/>
            </g>
        </g>
        <g transform="matrix(4.150943,0,0,1.888889,-16.777714,-178.111111)">
            <g transform="matrix(0.104247,0,0,0.22909,35.004504,128.83742)">
                <path d="M183.2,50L176.4,50L176.4,25.6L168.1,25.6L168.1,19.5L191.3,19.5L191.3,25.6L183.2,25.6L183.2,50Z" style="fill:white;fill-rule:nonzero;"/>
            </g>
        </g>
        <g transform="matrix(4.150943,0,0,1.888889,-16.777714,-178.111111)">
            <g transform="matrix(0.104247,0,0,0.22909,35.004504,128.83742)">
                <path d="M211.3,50L204.5,50L204.5,38.7L193.3,19.6L200.6,19.6L207.9,32.3L215.2,19.6L222.5,19.6L211.3,38.7L211.3,50Z" style="fill:white;fill-rule:nonzero;"/>
            </g>
        </g>
        <g transform="matrix(4.150943,0,0,1.888889,-16.777714,-178.111111)">
            <g transform="matrix(0.104247,0,0,0.22909,35.004504,128.83742)">
                <path d="M246.8,50L225.6,50L225.6,19.5L246.4,19.5L246.4,25.6L232.3,25.6L232.3,31.3L245.5,31.3L245.5,37.3L232.3,37.3L232.3,43.8L246.7,43.8L246.7,50L246.8,50Z" style="fill:white;fill-rule:nonzero;"/>
            </g>
        </g>
        <g transform="matrix(4.150943,0,0,1.888889,-16.777714,-178.111111)">
            <g transform="matrix(0.104247,0,0,0.22909,35.004504,128.83742)">
                <path d="M233.6,69.6L233.6,59.7L235.3,59.7L235.3,69.4C235.3,70.8 235.7,71.8 236.4,72.5C237.1,73.2 238.1,73.6 239.3,73.6C240.6,73.6 241.5,73.2 242.2,72.5C242.9,71.8 243.3,70.7 243.3,69.4L243.3,59.7L245,59.7L245,69.6C245,71.4 244.5,72.8 243.4,73.8C242.3,74.8 241,75.2 239.3,75.2C237.6,75.2 236.2,74.7 235.2,73.8C234.2,72.8 233.6,71.4 233.6,69.6Z" style="fill:white;fill-rule:nonzero;"/>
            </g>
        </g>
        <g transform="matrix(4.150943,0,0,1.888889,-16.777714,-178.111111)">
            <g transform="matrix(0.104247,0,0,0.22909,35.004504,128.83742)">
                <path d="M260.3,59.4C262.6,59.4 264.6,60.3 266.1,62L264.9,63.1C263.7,61.7 262.2,61 260.2,61C258.4,61 256.9,61.6 255.7,62.8C254.5,64 253.9,65.5 253.9,67.3C253.9,69.1 254.5,70.6 255.7,71.9C256.9,73.1 258.4,73.7 260.2,73.7C262.2,73.7 263.7,73 264.9,71.6L266.1,72.7C264.6,74.5 262.6,75.4 260.2,75.4C258,75.4 256.1,74.6 254.5,73.1C253,71.6 252.2,69.7 252.2,67.4C252.2,65.2 253,63.3 254.5,61.7C256.2,60.2 258.1,59.4 260.3,59.4Z" style="fill:white;fill-rule:nonzero;"/>
            </g>
        </g>
        <g transform="matrix(4.150943,0,0,1.888889,-16.777714,-178.111111)">
            <g transform="matrix(0.104247,0,0,0.22909,35.004504,128.83742)">
                <path d="M277.8,75L276.1,75L276.1,61.3L272,61.3L272,59.7L282,59.7L282,61.3L277.8,61.3L277.8,75Z" style="fill:white;fill-rule:nonzero;"/>
            </g>
        </g>
        <g transform="matrix(4.150943,0,0,1.888889,-16.777714,-178.111111)">
            <g transform="matrix(0.104247,0,0,0.22909,35.004504,128.83742)">
                <path d="M287.6,71.6L289.1,70.9C289.9,72.7 291.1,73.7 292.9,73.7C294.2,73.7 295.1,73.3 295.5,72.6C295.8,72 296,71.5 296,71C296,70.2 295.7,69.5 295.2,69.1C294.7,68.7 293.8,68.2 292.6,67.6C291.2,67 290.2,66.4 289.6,65.8C289,65.2 288.6,64.3 288.6,63.2C288.6,62.1 289,61.2 289.8,60.5C290.6,59.8 291.6,59.4 292.8,59.4C294.7,59.4 296,60.2 296.9,61.8L295.4,62.5C294.8,61.4 293.9,60.9 292.7,60.9C292,60.9 291.4,61.1 290.9,61.5C290.4,61.9 290.2,62.4 290.2,63.1C290.2,63.9 290.5,64.5 291.1,64.9C291.6,65.2 291.9,65.4 292,65.5L293.3,66.1C294.8,66.8 295.9,67.5 296.6,68.1C297.3,68.8 297.6,69.7 297.6,70.9C297.6,72.2 297.2,73.2 296.3,74C295.5,74.8 294.3,75.2 292.8,75.2C291.6,75.2 290.5,74.9 289.5,74.3C288.7,73.7 288,72.8 287.6,71.6Z" style="fill:white;fill-rule:nonzero;"/>
            </g>
        </g>
        <g transform="matrix(4.150943,0,0,1.888889,-16.777714,-178.111111)">
            <g transform="matrix(0.104247,0,0,0.22909,35.004504,128.83742)">
                <rect x="252.5" y="19.5" width="6.7" height="30.5" style="fill:white;fill-rule:nonzero;"/>
            </g>
        </g>
        <g transform="matrix(4.150943,0,0,1.888889,-16.777714,-178.111111)">
            <g transform="matrix(0.104247,0,0,0.22909,35.004504,128.83742)">
                <path d="M280.5,19C285.2,19 289.1,20.6 292.3,23.9L287.7,27.9C285.8,26 283.4,25.1 280.4,25.1C277.7,25.1 275.4,26 273.5,27.9C271.6,29.7 270.7,32 270.7,34.8C270.7,37.5 271.6,39.8 273.5,41.7C275.4,43.5 277.7,44.4 280.4,44.4C283.1,44.4 285.3,43.6 287.1,42L287.1,37.9L279.1,37.9L279.1,31.9L293.4,31.9L293.4,44.3C292,46.2 290.1,47.7 287.8,48.9C285.5,50 283,50.6 280.4,50.6C275.8,50.6 272,49.1 268.8,46.1C265.6,43.1 264,39.3 264,34.8C264,30.3 265.6,26.6 268.8,23.5C272.1,20.5 276,19 280.5,19Z" style="fill:white;fill-rule:nonzero;"/>
            </g>
        </g>
        <g transform="matrix(4.150943,0,0,1.888889,-16.777714,-178.111111)">
            <g transform="matrix(0.104247,0,0,0.22909,35.004504,128.83742)">
                <path d="M305.5,50L298.8,50L298.8,19.5L305.5,19.5L305.5,30.8L318.7,30.8L318.7,19.5L325.4,19.5L325.4,50L318.7,50L318.7,37L305.5,37L305.5,50Z" style="fill:white;fill-rule:nonzero;"/>
            </g>
        </g>
        <g transform="matrix(4.150943,0,0,1.888889,-16.777714,-178.111111)">
            <g transform="matrix(0.104247,0,0,0.22909,35.004504,128.83742)">
                <path d="M343.8,50L337,50L337,25.6L328.7,25.6L328.7,19.5L351.9,19.5L351.9,25.6L343.8,25.6L343.8,50Z" style="fill:white;fill-rule:nonzero;"/>
            </g>
        </g>
        <g transform="matrix(4.150943,0,0,1.888889,-16.777714,-178.111111)">
            <g transform="matrix(0.240909,0,0,0.529412,4.041904,125)">
                <rect x="120.203" y="0" width="220" height="51" style="fill:none;"/>
            </g>
        </g>
    </g>
</svg>
